<svg width="27" height="42" viewBox="0 0 27 42" fill="none" xmlns="http://www.w3.org/2000/svg">
<path fill-rule="evenodd" clip-rule="evenodd" d="M8.06408 22.5211C9.03106 22.5956 9.88816 18.8477 11.6683 17.4329C10.7013 17.2344 8.6135 20.0639 7.62455 20.0391C6.83338 21.156 7.25094 22.67 8.06408 22.5211ZM7.60257 18.5995C9.7563 17.8797 8.45967 12.3448 10.5694 9.56493C11.7562 8.00125 14.4593 7.33111 15.5362 8.99406C16.679 10.7811 15.1186 11.8236 14.5472 13.6603C14.2176 14.7275 13.5143 14.6034 12.9869 15.0006C12.3496 16.6883 11.0529 16.3905 10.7233 16.8124C9.95409 17.7804 9.22885 18.7484 7.60257 18.5995ZM20.2173 0.902664C20.6568 0.902664 21.0304 1.42389 21.0304 2.06922C21.0304 2.71454 20.6788 3.23577 20.2173 3.23577C19.7777 3.23577 19.4041 2.71454 19.4041 2.06922C19.4041 1.42389 19.7558 0.902664 20.2173 0.902664ZM20.3272 2.1685C20.1074 2.1685 19.9535 2.36706 19.9535 2.59044C19.9535 2.83864 20.1294 3.01238 20.3272 3.01238C20.5469 3.01238 20.7008 2.81382 20.7008 2.59044C20.7008 2.34224 20.5469 2.1685 20.3272 2.1685ZM20.9645 24.5812L18.7448 25.1769C19.8437 25.152 21.0963 25.0776 21.3601 24.9783C21.8216 24.7797 22.4809 24.606 22.2831 25.5243C22.0853 26.4427 21.4919 25.9711 21.4919 25.9711C20.0195 25.6236 17.4482 26.2441 16.8548 26.3186C16.679 26.3434 16.5911 26.2441 16.5252 26.0952C16.5032 26.3186 16.3274 26.4923 15.8659 26.4675C15.734 26.4675 15.6021 26.4427 15.4483 26.4427L18.6789 27.1128C18.6789 27.1128 16.4812 26.815 15.2945 26.542C15.5362 26.815 15.8878 27.3859 15.9757 28.3539C15.9757 28.3539 15.2725 27.1873 14.7231 26.6413C15.0747 27.1625 15.4483 28.1801 14.5033 29.5204C14.5033 29.5204 14.811 27.8078 14.4374 26.4179C13.822 26.4179 13.2067 26.4427 12.5913 26.4923C12.7012 28.1801 11.5144 28.9744 10.943 28.8006C12.0419 28.0312 11.7122 27.1625 11.4265 26.7902C11.1408 26.4179 10.7453 26.1449 11.031 25.3754C11.031 25.3754 10.1958 26.0704 10.1958 24.9535C10.1958 24.0351 11.4265 21.9999 12.1298 21.5283C11.7122 21.9999 11.2947 22.67 11.0969 23.3898C10.8771 24.2089 11.1628 24.9783 11.5364 24.0848C12.0639 22.4218 22.7446 14.8268 16.7889 9.14299C21.1623 11.0541 19.6898 16.0927 16.9867 19.0463C15.6021 20.5851 13.9978 21.8013 12.8111 23.3153C12.3056 23.9607 11.8881 24.8294 12.4155 25.4995C12.4375 25.574 12.4594 25.6484 12.4814 25.7229C14.3495 25.4499 16.1735 25.0776 16.1735 25.0776C16.1735 25.0776 16.3493 25.3258 16.4373 25.5988L16.5032 25.574C16.5691 25.301 16.7449 25.0528 16.9647 25.1024C17.1185 25.1272 17.5141 25.152 18.0196 25.152C19.0085 24.9038 19.9755 24.6556 20.5469 24.5315C20.7667 21.702 19.7118 20.3866 19.7118 20.3866C21.0524 21.5779 21.2062 23.4394 21.2062 23.4394L20.5909 24.5315L20.7008 24.5067C21.2502 24.2089 22.1952 22.4963 22.1952 22.4963C22.1073 24.0103 21.3381 24.5812 21.3381 24.5812H20.9645ZM5.64663 30.3643C4.83349 31.1585 4.45988 31.2826 3.73465 31.3571C3.86651 32.0521 5.38291 32.1514 6.56966 30.8359C6.70152 30.687 6.83338 30.538 6.96524 30.3643C4.96535 34.0377 2.32813 37.9593 0.130447 38.2323C-0.638742 38.3316 2.17429 39.5974 3.84453 38.282C2.45999 40.3172 1.73476 40.7143 0.350215 41.1611C0.767775 42.6255 3.7786 42.3277 5.77849 39.0266C7.9542 35.4276 9.60246 29.7686 10.2398 25.5243C10.2398 25.5243 9.25083 28.2546 8.85525 28.6021C8.85525 28.6021 9.95409 25.6981 10.064 24.1592C9.95409 24.3826 9.7563 24.8046 9.49258 25.3754C9.31676 25.6733 8.87723 26.3931 8.70141 26.4923C8.70141 26.4923 9.40467 25.301 9.55851 24.606C9.07502 25.2761 5.77849 30.1409 3.80058 30.0416C3.38302 30.0168 4.7236 30.8111 5.64663 30.3643ZM6.41582 24.7797C7.53664 24.9783 9.05304 21.8013 11.4265 18.9222C11.4265 18.9222 10.4596 23.5635 8.8113 25.5492C7.73443 26.8398 6.28396 26.0952 6.41582 24.7797ZM23.7995 7.70341C23.7555 7.70341 23.7116 7.70341 23.6896 7.70341C23.5138 7.70341 23.36 7.70341 23.1841 7.67859C23.0303 7.70341 22.8984 7.82751 22.8545 7.97643C22.8325 8.10054 22.9204 8.24946 23.0303 8.34874C23.0962 8.39838 23.2061 8.34874 23.294 8.34874C23.5138 8.34874 23.7336 8.4232 23.9533 8.39838C24.1511 8.37356 24.4148 8.34874 24.5028 8.19982C24.5907 8.0509 24.4588 7.82751 24.305 7.75305C24.283 7.72823 24.239 7.72823 24.2171 7.70341C24.3709 7.00845 24.5687 6.3383 24.8104 5.66815C24.8544 5.46959 24.8104 5.41995 24.6566 5.51923C24.239 5.44477 23.7116 5.27103 23.1622 5.09729C23.2281 4.45196 23.2061 3.83145 23.0083 3.23577C22.8545 2.76418 22.5908 2.31742 22.0853 2.14368C21.8216 2.06922 21.5579 2.1685 21.3381 2.34224C20.8766 2.76418 20.6568 3.31023 20.503 3.88109C20.481 4.03002 20.6568 4.22858 20.8106 4.2534C20.9645 4.30304 22.0413 4.60088 22.371 5.14693C22.5908 5.54405 22.5468 6.01563 22.6127 6.48722C22.7666 6.56168 23.0083 6.11492 23.0523 5.84189C23.0743 5.71779 23.0962 5.59369 23.1182 5.44477C23.4698 5.51923 23.8215 5.64333 24.1731 5.81707C24.239 5.84189 24.1072 5.96599 24.1731 5.99081C24.1731 6.04046 24.283 5.94117 24.261 5.99081C24.1291 6.56168 23.9753 7.13255 23.7995 7.70341ZM20.5689 8.74586C19.1624 11.0293 20.3491 12.3448 21.4919 13.6851C23.6237 14.4793 25.2939 14.7027 25.9093 13.6603C27.7333 10.4088 26.8543 9.41601 26.2389 8.22464C26.129 8.12536 26.0192 8.02608 25.8873 7.90197C26.3708 8.47284 25.6675 8.59694 24.9203 8.52248C24.3929 9.11817 23.8215 9.21745 22.9424 8.82032C22.327 9.41601 21.448 8.94442 21.5359 8.6714C21.2062 8.77068 21.0524 8.62176 20.8106 8.4232C20.7008 8.34874 20.6348 8.64658 20.5689 8.74586ZM20.5469 4.20376C20.7667 4.6257 21.1403 5.81707 22.415 5.34549C22.5468 6.18938 21.6018 7.00845 20.7447 6.8347C19.7338 6.61132 19.5799 5.02282 20.1074 4.27822C20.1294 4.17894 20.3931 3.98037 20.5469 4.20376ZM18.8987 6.26384C19.0745 6.04045 19.2063 5.84189 19.2942 5.69297C19.4701 5.37031 19.4701 5.14693 19.4701 5.14693C19.2942 5.51923 18.6569 5.76743 18.6569 5.76743C18.6569 5.76743 19.2063 5.17175 19.1844 4.92354C19.1624 4.67534 18.569 4.79944 18.569 4.79944C19.4261 4.30304 19.5799 3.83145 19.2063 3.50879C17.7559 1.54799 19.4481 -0.909214 22.2391 1.54799C20.0854 -1.18224 17.2064 0.0587753 15.4263 2.49116C13.9978 4.42714 13.2506 5.99081 10.5035 8.07572C14.0198 6.4624 15.2505 7.55449 16.2834 8.12536C17.1625 8.59694 17.9537 8.4232 18.0855 7.30629C18.0855 7.30629 18.2174 7.77787 18.6789 7.85233C19.1404 7.92679 18.8987 6.26384 18.8987 6.26384Z" fill="white"/>
</svg>
