<svg width="33" height="32" viewBox="0 0 33 32" fill="none" xmlns="http://www.w3.org/2000/svg">
<g clip-path="url(#clip0)">
<path d="M16.6 32C25.4365 32 32.6 24.8366 32.6 16C32.6 7.16344 25.4365 0 16.6 0C7.76342 0 0.599976 7.16344 0.599976 16C0.599976 24.8366 7.76342 32 16.6 32Z" fill="#6DA544"/>
<path d="M16.6001 6.26086L29.8174 16L16.6001 25.7391L3.38269 16L16.6001 6.26086Z" fill="#FFDA44"/>
<path d="M16.5999 21.5651C19.6734 21.5651 22.165 19.0735 22.165 15.9999C22.165 12.9264 19.6734 10.4348 16.5999 10.4348C13.5263 10.4348 11.0347 12.9264 11.0347 15.9999C11.0347 19.0735 13.5263 21.5651 16.5999 21.5651Z" fill="#F0F0F0"/>
<path d="M13.8173 15.6521C12.8496 15.6521 11.9156 15.7993 11.0365 16.0724C11.0754 19.1124 13.5507 21.5652 16.5999 21.5652C18.4854 21.5652 20.1507 20.6266 21.1574 19.1922C19.4351 17.0361 16.785 15.6521 13.8173 15.6521Z" fill="#0052B4"/>
<path d="M22.062 17.0662C22.129 16.7209 22.1651 16.3648 22.1651 15.9999C22.1651 12.9263 19.6735 10.4348 16.6 10.4348C14.3066 10.4348 12.3378 11.8223 11.4858 13.8034C12.239 13.6474 13.0187 13.5652 13.8174 13.5652C17.0497 13.5651 19.9738 14.9088 22.062 17.0662Z" fill="#0052B4"/>
</g>
<defs>
<clipPath id="clip0">
<rect width="32" height="32" fill="white" transform="translate(0.599976)"/>
</clipPath>
</defs>
</svg>
